<svg width="903" height="353" viewBox="0 0 903 353" fill="none" xmlns="http://www.w3.org/2000/svg">
<path d="M105.725 179.365C122.525 175.765 124.725 161.199 123.725 154.365C98.7242 174.365 66.2251 164.365 65.2251 132.865C64.2251 101.365 88.7251 86.3652 127.225 86.8652C165.724 87.3652 193.725 108.365 246.725 111.865C289.125 114.665 292.392 88.6986 288.725 75.3652C283.225 80.3652 274.625 90.5652 254.225 93.3652C228.725 96.8652 155.725 78.3653 127.225 78.3653C99.6112 78.3653 49.2246 89.8653 53.2246 132.865C57.2246 175.865 84.7246 183.865 105.725 179.365Z" fill="#2F0F02"/>
<path d="M145.225 188.365C158.425 135.565 191.725 118.699 206.725 116.865C204.725 118.699 195.824 133.265 176.224 176.865C156.624 220.465 152.391 282.032 152.725 307.365C136.725 299.865 128.725 254.365 145.225 188.365Z" fill="#2F0F02"/>
<path d="M198.225 225.365H204.725L217.225 194.365C220.391 194.698 226.825 197.865 227.225 207.865C227.725 220.365 218.725 231.865 212.725 253.365C206.725 274.865 217.725 292.365 229.725 292.365C239.325 292.365 254.725 268.032 261.225 255.865C260.725 271.865 274.725 292.365 296.225 292.365C313.425 292.365 332.725 262.365 340.225 247.365C339.725 281.365 357.225 293.365 366.225 292.365C373.425 291.565 387.891 262.032 394.225 247.365C394.225 257.865 407.225 293.365 423.225 292.365C436.025 291.565 455.891 255.698 464.225 237.865C469.825 240.265 478.225 238.198 481.725 236.865C475.725 281.365 500.725 293.865 518.725 293.365C533.125 292.965 552.058 263.198 559.725 248.365C555.725 303.365 578.725 292.365 579.725 292.365C578.225 281.365 581.225 274.865 592.225 246.365C603.225 217.865 630.225 186.865 637.225 188.365C644.225 189.865 623.225 228.365 616.725 249.865C610.225 271.365 616.225 292.365 634.725 292.365C649.525 292.365 669.225 252.032 677.225 231.865L671.225 228.365C661.225 251.865 638.725 287.365 634.725 284.865C630.725 282.365 640.225 254.365 642.225 249.865C644.225 245.365 679.725 179.365 646.725 177.365C620.325 175.765 596.058 215.698 587.225 235.865C585.225 226.265 601.391 194.198 609.725 179.365C580.725 170.365 566.725 209.365 563.725 222.865C560.725 236.365 537.725 280.865 518.725 283.865C503.525 286.265 504.058 257.532 506.225 242.865C527.225 243.865 584.225 180.365 544.725 177.365C505.225 174.365 488.725 219.865 485.225 226.865C482.425 232.465 472.391 231.532 467.725 230.365C479.725 205.365 477.725 182.865 467.725 181.865C457.725 180.865 449.225 187.365 445.225 205.365C441.225 223.365 455.225 230.365 455.725 234.865C456.225 239.365 454.225 240.865 445.225 257.865C438.025 271.465 427.558 281.532 423.225 284.865C406.825 251.265 425.391 200.532 436.725 179.365C400.725 170.865 395.725 214.365 394.225 230.865C393.025 244.065 375.058 270.365 366.225 281.865C353.825 255.065 376.058 202.365 388.725 179.365C356.225 173.865 349.725 204.865 343.725 223.365C337.725 241.865 311.725 285.865 296.225 284.365C283.825 283.165 284.391 255.865 286.225 242.365C293.891 241.865 313.425 234.765 330.225 210.365C351.225 179.865 322.725 167.865 296.225 186.365C269.725 204.865 270.225 218.365 256.725 248.865C245.925 273.265 234.225 284.032 229.725 286.365C226.725 278.365 232.225 268.365 241.225 247.865C250.225 227.365 249.725 218.365 248.225 210.365C247.025 203.965 228.725 192.698 219.725 187.865L228.225 164.865C223.725 163.365 213.025 162.865 206.225 172.865C199.425 182.865 206.058 189.365 210.225 191.365L198.225 225.365Z" fill="#2F0F02"/>
<path d="M105.725 179.365C122.525 175.765 124.725 161.199 123.725 154.365C98.7242 174.365 66.2251 164.365 65.2251 132.865C64.2251 101.365 88.7251 86.3652 127.225 86.8652C165.724 87.3652 193.725 108.365 246.725 111.865C289.125 114.665 292.392 88.6986 288.725 75.3652C283.225 80.3652 274.625 90.5652 254.225 93.3652C228.725 96.8652 155.725 78.3653 127.225 78.3653C99.6112 78.3653 49.2246 89.8653 53.2246 132.865C57.2246 175.865 84.7246 183.865 105.725 179.365Z" stroke="black"/>
<path d="M145.225 188.365C158.425 135.565 191.725 118.699 206.725 116.865C204.725 118.699 195.824 133.265 176.224 176.865C156.624 220.465 152.391 282.032 152.725 307.365C136.725 299.865 128.725 254.365 145.225 188.365Z" stroke="black"/>
<path d="M198.225 225.365H204.725L217.225 194.365C220.391 194.698 226.825 197.865 227.225 207.865C227.725 220.365 218.725 231.865 212.725 253.365C206.725 274.865 217.725 292.365 229.725 292.365C239.325 292.365 254.725 268.032 261.225 255.865C260.725 271.865 274.725 292.365 296.225 292.365C313.425 292.365 332.725 262.365 340.225 247.365C339.725 281.365 357.225 293.365 366.225 292.365C373.425 291.565 387.891 262.032 394.225 247.365C394.225 257.865 407.225 293.365 423.225 292.365C436.025 291.565 455.891 255.698 464.225 237.865C469.825 240.265 478.225 238.198 481.725 236.865C475.725 281.365 500.725 293.865 518.725 293.365C533.125 292.965 552.058 263.198 559.725 248.365C555.725 303.365 578.725 292.365 579.725 292.365C578.225 281.365 581.225 274.865 592.225 246.365C603.225 217.865 630.225 186.865 637.225 188.365C644.225 189.865 623.225 228.365 616.725 249.865C610.225 271.365 616.225 292.365 634.725 292.365C649.525 292.365 669.225 252.032 677.225 231.865L671.225 228.365C661.225 251.865 638.725 287.365 634.725 284.865C630.725 282.365 640.225 254.365 642.225 249.865C644.225 245.365 679.725 179.365 646.725 177.365C620.325 175.765 596.058 215.698 587.225 235.865C585.225 226.265 601.391 194.198 609.725 179.365C580.725 170.365 566.725 209.365 563.725 222.865C560.725 236.365 537.725 280.865 518.725 283.865C503.525 286.265 504.058 257.532 506.225 242.865C527.225 243.865 584.225 180.365 544.725 177.365C505.225 174.365 488.725 219.865 485.225 226.865C482.425 232.465 472.391 231.532 467.725 230.365C479.725 205.365 477.725 182.865 467.725 181.865C457.725 180.865 449.225 187.365 445.225 205.365C441.225 223.365 455.225 230.365 455.725 234.865C456.225 239.365 454.225 240.865 445.225 257.865C438.025 271.465 427.558 281.532 423.225 284.865C406.825 251.265 425.391 200.532 436.725 179.365C400.725 170.865 395.725 214.365 394.225 230.865C393.025 244.065 375.058 270.365 366.225 281.865C353.825 255.065 376.058 202.365 388.725 179.365C356.225 173.865 349.725 204.865 343.725 223.365C337.725 241.865 311.725 285.865 296.225 284.365C283.825 283.165 284.391 255.865 286.225 242.365C293.891 241.865 313.425 234.765 330.225 210.365C351.225 179.865 322.725 167.865 296.225 186.365C269.725 204.865 270.225 218.365 256.725 248.865C245.925 273.265 234.225 284.032 229.725 286.365C226.725 278.365 232.225 268.365 241.225 247.865C250.225 227.365 249.725 218.365 248.225 210.365C247.025 203.965 228.725 192.698 219.725 187.865L228.225 164.865C223.725 163.365 213.025 162.865 206.225 172.865C199.425 182.865 206.058 189.365 210.225 191.365L198.225 225.365Z" stroke="black"/>
<path d="M288.724 233.865C307.724 222.699 340.225 193.434 327.224 185.365C312.724 176.366 287.224 232.865 288.724 233.865Z" fill="white" stroke="black"/>
<path d="M508.288 234.336C527.288 223.169 559.788 193.905 546.788 185.836C532.288 176.837 506.788 233.336 508.288 234.336Z" fill="white" stroke="black"/>
<path d="M715.225 140.865C744.025 102.865 775.725 104.865 781.725 110.365C786.285 114.545 789.725 141.365 767.725 165.365C745.725 189.365 696.558 217.032 674.725 227.865C676.225 214.698 686.425 178.865 715.225 140.865Z" fill="#2F0F02"/>
<path d="M790.225 49.365C775.025 62.165 773.558 94.6984 774.725 109.365C774.908 112.565 778.801 114.032 780.725 114.365C807.225 116.865 852.225 94.8652 849.225 89.8652C846.225 84.8652 843.225 88.3652 835.725 84.3652C828.225 80.3652 833.225 68.8652 828.225 64.8652C823.225 60.8652 816.725 65.865 810.725 61.865C804.725 57.865 809.225 33.365 790.225 49.365Z" fill="#2F0F02"/>
<path d="M715.225 140.865C744.025 102.865 775.725 104.865 781.725 110.365C786.285 114.545 789.725 141.365 767.725 165.365C745.725 189.365 696.558 217.032 674.725 227.865C676.225 214.698 686.425 178.865 715.225 140.865Z" stroke="black"/>
<path d="M790.225 49.365C775.025 62.165 773.558 94.6984 774.725 109.365C774.908 112.565 778.801 114.032 780.725 114.365C807.225 116.865 852.225 94.8652 849.225 89.8652C846.225 84.8652 843.225 88.3652 835.725 84.3652C828.225 80.3652 833.225 68.8652 828.225 64.8652C823.225 60.8652 816.725 65.865 810.725 61.865C804.725 57.865 809.225 33.365 790.225 49.365Z" stroke="black"/>
<path d="M785 99C785.356 92.2444 789.053 76.3867 801 67" stroke="white" stroke-width="2"/>
<path d="M795 103.964C799.2 104.368 811.08 101.541 825 87" stroke="white" stroke-width="2"/>
<path d="M711.225 207.762C705.225 196.503 692.558 189.556 687.225 187.615C684.425 193.827 679.725 206.703 677.725 212.365C680.525 213.53 685.725 218.601 687.725 220.865L711.225 207.762Z" stroke="white"/>
</svg>
