<?xml version="1.0" standalone="no"?>
<!DOCTYPE svg PUBLIC "-//W3C//DTD SVG 20010904//EN"
 "http://www.w3.org/TR/2001/REC-SVG-20010904/DTD/svg10.dtd">
<svg version="1.0" xmlns="http://www.w3.org/2000/svg"
 width="275.000000pt" height="275.000000pt" viewBox="0 0 275.000000 275.000000"
 preserveAspectRatio="xMidYMid meet">
<metadata>
Created by potrace 1.14, written by Peter Selinger 2001-2017
</metadata>
<g transform="translate(0.000000,275.000000) scale(0.100000,-0.100000)"
fill="#000000" stroke="none">
<path d="M1713 2290 c-134 -60 -221 -274 -219 -537 l1 -83 -50 -1 c-27 -1 -53
-1 -58 0 -10 1 -125 -36 -157 -52 -190 -90 -386 -316 -554 -640 -56 -107 -143
-321 -152 -372 -2 -17 -7 -37 -10 -45 -13 -37 -21 -100 -12 -100 9 0 101 48
223 115 121 67 347 212 457 292 298 218 423 404 423 631 l0 92 30 1 c130 6
292 53 460 134 122 59 166 95 149 123 -11 17 -20 20 -101 42 -49 12 -73 47
-73 105 0 49 -24 102 -50 110 -11 4 -47 7 -78 7 -31 0 -65 5 -74 10 -10 4 -25
34 -34 66 -33 115 -54 132 -121 102z"/>
<path d="M550 1342 c0 -81 50 -272 72 -272 11 0 10 5 -7 46 -17 42 -45 183
-45 230 0 19 -4 34 -10 34 -5 0 -10 -17 -10 -38z"/>
<path d="M2169 1348 c-3 -152 -68 -331 -163 -453 -118 -150 -282 -255 -466
-296 -141 -31 -339 -15 -464 36 -14 6 -18 4 -14 -6 2 -8 40 -25 84 -38 113
-34 323 -36 438 -3 129 37 254 108 352 198 94 88 187 244 223 374 26 91 38
220 22 220 -6 0 -11 -15 -12 -32z"/>
</g>
</svg>
