<svg width="120" height="120" viewBox="0 0 120 120" fill="none" xmlns="http://www.w3.org/2000/svg">
<g clip-path="url(#clip0_389_506)">
<path d="M68.484 60L85.458 76.968C86.5838 78.0938 87.2163 79.6208 87.2163 81.213C87.2163 82.8052 86.5838 84.3322 85.458 85.458C84.3322 86.5838 82.8052 87.2163 81.213 87.2163C79.6208 87.2163 78.0938 86.5838 76.968 85.458L60 68.484L43.032 85.458C41.9062 86.5838 40.3792 87.2163 38.787 87.2163C37.1948 87.2163 35.6678 86.5838 34.542 85.458C33.4162 84.3322 32.7837 82.8052 32.7837 81.213C32.7837 79.6208 33.4162 78.0938 34.542 76.968L51.516 60L34.542 43.032C33.4162 41.9062 32.7837 40.3792 32.7837 38.787C32.7837 37.1948 33.4162 35.6678 34.542 34.542C35.6678 33.4162 37.1948 32.7837 38.787 32.7837C40.3792 32.7837 41.9062 33.4162 43.032 34.542L60 51.516L76.968 34.542C78.0938 33.4162 79.6208 32.7837 81.213 32.7837C82.8052 32.7837 84.3322 33.4162 85.458 34.542C86.5838 35.6678 87.2163 37.1948 87.2163 38.787C87.2163 40.3792 86.5838 41.9062 85.458 43.032L68.484 60ZM60 120C26.862 120 0 93.138 0 60C0 26.862 26.862 0 60 0C93.138 0 120 26.862 120 60C120 93.138 93.138 120 60 120ZM60 108C72.7304 108 84.9394 102.943 93.9411 93.9411C102.943 84.9394 108 72.7304 108 60C108 47.2696 102.943 35.0606 93.9411 26.0589C84.9394 17.0571 72.7304 12 60 12C47.2696 12 35.0606 17.0571 26.0589 26.0589C17.0571 35.0606 12 47.2696 12 60C12 72.7304 17.0571 84.9394 26.0589 93.9411C35.0606 102.943 47.2696 108 60 108Z" fill="url(#paint0_linear_389_506)"/>
</g>
<defs>
<linearGradient id="paint0_linear_389_506" x1="-21.2737" y1="-180.937" x2="-68.7864" y2="157.492" gradientUnits="userSpaceOnUse">
<stop stop-color="#EFF4F7"/>
<stop offset="1" stop-color="#F15D5D"/>
</linearGradient>
<clipPath id="clip0_389_506">
<rect width="120" height="120" fill="white"/>
</clipPath>
</defs>
</svg>
