<svg width="217" height="235" viewBox="0 0 217 235" fill="none" xmlns="http://www.w3.org/2000/svg">
<path d="M90.5638 52.9715C73.4977 82.5676 91.3256 87.9114 102.373 86.8838H112.658C141.305 86.8838 132.047 66.2097 126.753 54.7331C120.658 41.5206 107.63 23.3753 90.5638 52.9715Z" fill="#D9D9D9" stroke="black" stroke-width="2" stroke-linecap="round"/>
<path d="M45 177V103C45 91.9543 53.9543 83 65 83H153C164.046 83 173 91.9543 173 103V177C173 188.046 164.046 197 153 197H65C53.9543 197 45 188.046 45 177Z" fill="#D9D9D9"/>
<path d="M45 122C50.5 123 61.8 123.8 63 119C64.5 113 64.5 111 72.5 111C80.5 111 74 130 90.5 129C107 128 98 120 109 120C120 120 111 129 126.5 129C142 129 131.5 111 145.5 111C159.5 111 147 122 173 122M45 103V177C45 188.046 53.9543 197 65 197H153C164.046 197 173 188.046 173 177V103C173 91.9543 164.046 83 153 83H65C53.9543 83 45 91.9543 45 103Z" stroke="black" stroke-width="2"/>
<circle cx="87.5" cy="149" r="6" fill="black"/>
<circle cx="128.5" cy="149" r="6" fill="black"/>
<path d="M100.5 152C100.833 154.5 102.9 159.5 108.5 159.5C114.1 159.5 115.5 154.5 115.5 152" stroke="black" stroke-width="2" stroke-linecap="round"/>
</svg>
