<svg width="245" height="188" viewBox="0 0 245 188" fill="none" xmlns="http://www.w3.org/2000/svg">
<path d="M46.6928 32.0801C77.0563 11.2424 107.469 37.0415 118.88 52.1737C133.764 34.5609 170.082 5.28883 199.255 32.0801C235.721 65.5692 223.069 176.456 118.88 174.223C14.6916 171.99 8.73842 58.1272 46.6928 32.0801Z" fill="#DDDDDD"/>
<path d="M66.6808 54.7493C89.3046 47.0096 99.9846 60.7028 98.6816 76.3312C97.937 85.2616 83.0533 118.751 70.4018 114.286C57.7504 109.82 38.4011 64.4239 66.6808 54.7493Z" fill="white"/>
<path d="M170.924 51.911C147.458 49.9025 140.244 65.1103 144.977 79.3661C147.682 87.5123 169.445 115.281 180.609 108.215C191.773 101.148 200.257 54.4216 170.924 51.911Z" fill="white"/>
<path d="M94.5133 137.36C98.0855 135.574 114.359 113.298 122.049 102.383C152.561 132.895 146.608 149.268 121.305 150.012C96.0017 150.756 90.0481 139.593 94.5133 137.36Z" fill="white"/>
<path d="M46.6928 32.0801C77.0563 11.2424 107.469 37.0415 118.88 52.1737C133.764 34.5609 170.082 5.28883 199.255 32.0801C235.721 65.5692 223.069 176.456 118.88 174.223C14.6916 171.99 8.73842 58.1272 46.6928 32.0801Z" stroke="black" stroke-width="2.97681"/>
<path d="M66.6808 54.7493C89.3046 47.0096 99.9846 60.7028 98.6816 76.3312C97.937 85.2616 83.0533 118.751 70.4018 114.286C57.7504 109.82 38.4011 64.4239 66.6808 54.7493Z" stroke="black" stroke-width="2.97681"/>
<path d="M170.924 51.911C147.458 49.9025 140.244 65.1103 144.977 79.3661C147.682 87.5123 169.445 115.281 180.609 108.215C191.773 101.148 200.257 54.4216 170.924 51.911Z" stroke="black" stroke-width="2.97681"/>
<path d="M94.5133 137.36C98.0855 135.574 114.359 113.298 122.049 102.383C152.561 132.895 146.608 149.268 121.305 150.012C96.0017 150.756 90.0481 139.593 94.5133 137.36Z" stroke="black" stroke-width="2.97681"/>
<circle cx="208.372" cy="83.7781" r="1.48841" fill="black"/>
<circle cx="63.9996" cy="45.0801" r="1.48841" fill="black"/>
<circle cx="151.816" cy="115.035" r="1.48841" fill="black"/>
<circle cx="83.3473" cy="118.012" r="1.48841" fill="black"/>
<circle cx="52.0919" cy="120.989" r="1.48841" fill="black"/>
<circle cx="72.9288" cy="146.291" r="1.48841" fill="black"/>
<circle cx="171.165" cy="39.1261" r="1.48841" fill="black"/>
<circle cx="196.465" cy="48.0566" r="1.48841" fill="black"/>
<circle cx="166.698" cy="149.269" r="1.48841" fill="black"/>
<circle cx="114.607" cy="83.7781" r="1.48841" fill="black"/>
<circle cx="40.1842" cy="80.8018" r="1.48841" fill="black"/>
<circle cx="102.699" cy="159.687" r="1.48841" fill="black"/>
<circle cx="189.025" cy="119.5" r="1.48841" fill="black"/>
<circle cx="40.1842" cy="80.8018" r="1.48841" fill="black"/>
</svg>
