<svg width="165" height="136" viewBox="0 0 165 136" fill="none" xmlns="http://www.w3.org/2000/svg">
<path d="M29.0939 105.198C28.4574 104.561 28.0331 100.689 27.9004 98.8328C20.342 98.0372 19.1484 93.6612 19.1484 91.6721C19.1484 89.683 19.9441 87.2961 21.1375 86.1027C22.331 84.9092 22.7288 83.318 22.331 81.7267C21.9332 80.1354 21.1376 76.1572 21.5354 74.566C21.9332 72.9747 23.5245 69.3944 25.1157 68.2009C26.707 67.0075 26.3092 65.4162 27.5026 64.2227C28.6961 63.0293 27.9004 61.0402 28.2983 59.8467C28.6961 58.6533 29.8895 57.4598 31.083 56.6642C32.2764 55.8686 35.0612 53.4817 35.8568 52.686C36.6524 51.8904 37.8459 50.2991 39.0393 49.1057C40.2328 47.9122 41.824 45.5253 42.6197 44.3319L42.6197 44.3319C43.4153 43.1384 44.6088 42.3428 46.2 41.945C47.7913 41.5471 50.1782 40.7515 52.1673 40.3537C54.1564 39.9559 53.7586 37.569 54.1564 36.3755C54.5542 35.1821 56.5433 33.5908 57.7367 32.7952C58.9302 31.9995 63.704 30.8061 65.2953 30.8061C66.8865 30.8061 68.4778 29.2148 69.6712 28.0214C70.8647 26.8279 73.6494 24.8388 76.0363 24.8388C78.4232 24.8388 79.6167 24.0432 81.2079 23.2476C82.7992 22.4519 84.7883 20.065 86.7774 19.6672C88.7665 19.2694 91.5512 19.6672 93.1425 20.065C94.7337 20.4628 95.9272 19.2694 98.3141 18.0759C100.701 16.8825 105.475 16.0869 107.862 16.4847C110.249 16.8825 113.033 18.0759 114.227 18.0759C115.42 18.0759 116.614 16.4847 117.807 15.689C119.001 14.8934 120.592 14.8934 123.377 15.2912C126.161 15.689 128.548 17.2803 129.742 18.4738C130.935 19.6672 130.139 20.4628 129.344 21.6563C128.707 22.6111 128.548 23.115 128.548 23.2476L129.742 25.6345L131.333 30.4083L132.924 35.5799L135.311 43.5362C135.842 45.3927 137.061 49.5035 137.698 51.0948C138.334 52.686 138.494 55.736 138.494 57.062V61.8358C138.626 63.1619 138.891 66.1323 138.891 67.4053C138.891 68.6783 139.687 72.9747 140.085 74.9638L140.881 78.5441C141.278 80.5332 142.313 85.1479 143.267 87.6939C144.461 90.8761 146.052 95.6492 146.45 96.8433L146.45 96.8437C146.848 98.0372 147.246 100.026 146.848 101.22C146.45 102.413 145.654 104.004 145.654 104.402C145.654 104.8 146.052 105.994 146.45 107.983C146.848 109.972 146.45 110.767 146.052 111.563C145.654 112.359 144.461 113.154 143.665 113.95C142.87 114.746 142.472 115.541 142.074 116.337C141.676 117.132 142.074 118.326 142.074 119.121C142.074 119.917 140.881 120.713 139.289 120.713C137.698 120.713 133.72 119.121 132.526 118.724C131.333 118.326 128.548 117.928 127.753 117.928C126.957 117.928 122.979 118.326 120.99 119.121C119.001 119.917 115.022 119.917 113.033 119.917H106.668C105.077 119.917 100.701 119.121 99.5075 118.724L99.507 118.723C98.313 118.326 94.7335 117.132 93.1425 116.735C91.5512 116.337 86.7774 116.735 85.1861 117.132C83.5948 117.53 79.6167 118.326 78.0254 119.121C76.4341 119.917 70.4669 119.917 67.6822 120.315C64.8974 120.713 56.5433 121.111 54.1564 120.713C51.7695 120.315 42.2219 117.53 39.0393 116.735C35.8568 115.939 33.8677 109.972 33.0721 108.778C32.2764 107.585 29.8895 105.994 29.0939 105.198Z" fill="#DDDDDD"/>
<path d="M27.9004 98.4733C28.2982 95.556 28.8552 88.687 27.9004 84.5497C26.707 79.3781 25.9113 74.6043 27.9004 73.013C29.8895 71.4218 33.47 71.0239 34.6635 68.2392C35.8569 65.4545 32.6744 61.4763 35.8569 59.4872C39.0395 57.4982 41.8242 59.8851 44.2111 55.1113C46.598 50.3374 45.8023 47.9505 49.3827 47.1549C52.9631 46.3593 55.35 46.7571 56.9412 43.9724C58.5325 41.1877 58.1347 39.1986 60.5216 38.8008C62.9085 38.4029 66.8867 40.7898 70.467 37.2095C74.0474 33.6291 74.0474 31.2422 76.8321 30.8444C79.6168 30.4466 82.4015 32.0379 85.5841 30.4466C88.7666 28.8553 88.3688 25.6728 90.3579 25.6728C92.347 25.6728 91.9491 27.2641 97.1208 26.4684C102.292 25.6728 102.69 23.2859 105.475 23.2859C108.26 23.2859 111.044 26.0706 115.818 24.0815C120.592 22.0924 119.399 21.2968 121.388 21.2968C123.377 21.2968 126.957 23.6837 128.548 22.8881M128.548 22.8881C131.996 31.9053 138.812 51.6105 138.494 58.2938C138.096 66.648 142.074 85.7432 143.665 89.3236C145.256 92.9039 150.03 104.838 143.665 104.838C137.3 104.838 134.913 103.247 130.139 104.043C125.366 104.838 121.387 104.043 119.001 102.849C116.614 101.656 110.646 102.849 106.668 102.849C102.69 102.849 101.894 100.065 98.7119 100.462C95.5293 100.86 90.3577 101.258 83.5948 100.462C76.8319 99.6668 72.8538 102.054 66.0909 100.462C59.328 98.8712 51.7694 98.8712 45.8022 99.269C39.8349 99.6668 34.2655 100.462 26.707 98.4734C19.1484 96.4843 19.1484 92.9039 19.1484 90.1192C19.1484 87.3345 22.331 85.7432 22.331 83.3563C22.331 80.9694 20.3419 75.0022 22.331 71.8196C24.3201 68.6371 27.9004 65.0567 27.9004 61.4764C27.9004 57.896 33.072 55.1113 35.0611 53.52C37.0502 51.9288 41.0284 46.3593 43.4153 43.5746C45.8022 40.7899 51.7694 41.1877 52.9629 39.5964C54.1564 38.0052 53.7585 34.027 59.7258 32.0379C65.693 30.0488 66.0909 31.6401 68.8756 28.8554C71.6603 26.0707 72.8538 24.8772 76.4341 24.8772C80.0145 24.8772 82.0036 22.0925 85.1861 20.1034C88.3686 18.1143 91.5512 20.5012 94.3359 19.7056C97.1206 18.9099 98.7119 17.3187 103.883 16.523C109.055 15.7274 111.84 18.9099 114.227 18.1143C116.614 17.3187 117.807 14.5339 121.387 14.9317C124.968 15.3295 130.935 17.3187 130.139 19.7056C129.344 22.0924 129.742 22.4903 128.548 22.8881ZM27.9004 98.8711C27.9004 100.993 28.3778 105.475 30.2873 106.43C32.6742 107.623 35.4589 112.397 35.4589 113.59C35.4589 114.784 39.0393 117.171 41.0284 117.171C43.0175 117.171 49.7804 121.149 59.328 120.751C68.8756 120.353 77.6276 119.558 79.6167 118.364C81.6057 117.171 93.1424 115.977 96.325 117.569C99.5075 119.16 103.883 120.353 112.238 119.955C120.592 119.558 127.753 116.773 131.333 118.364C134.913 119.955 140.483 121.547 141.676 119.955C142.87 118.364 140.88 116.375 143.267 114.386C145.654 112.397 146.848 110.806 146.45 107.623C146.132 105.077 145.522 104.706 145.256 104.838" stroke="black" stroke-width="1.58564"/>
<path d="M42.6191 105.634C45.4039 107.623 51.6894 112.556 54.5537 116.375" stroke="black" stroke-width="1.58564"/>
<path d="M58.146 109.248C54.9554 108.011 47.3832 105.461 42.6188 105.16" stroke="black" stroke-width="1.58564"/>
<path d="M68.4775 115.58C70.334 113.193 76.1952 108.578 84.788 109.215C95.5291 110.01 97.916 114.386 105.872 112.397C113.829 110.408 122.183 112.397 124.57 110.408C126.479 108.817 128.018 106.828 128.548 106.032" stroke="black" stroke-width="1.58564"/>
<path d="M75.6387 110.806C75.6387 110.408 78.8212 109.612 78.8212 106.032C78.8212 103.168 81.4733 102.717 82.7994 102.849" stroke="black" stroke-width="1.58564"/>
<path d="M89.959 102.849C91.1524 103.247 93.5393 104.6 93.5393 106.828C93.5393 109.612 93.5393 111.204 96.7219 111.999" stroke="black" stroke-width="1.58564"/>
<path d="M108.656 111.999C110.115 113.988 114.544 117.489 120.591 115.579C128.149 113.192 132.525 114.784 135.708 108.021" stroke="black" stroke-width="1.58564"/>
<path d="M50.9727 100.86C47.7902 101.656 40.6295 103.168 37.447 102.849C33.4688 102.452 38.6404 106.032 38.6404 109.612C38.6404 113.193 44.21 115.977 48.9838 117.171" stroke="black" stroke-width="1.58564"/>
<path d="M70.4658 49.1442C76.0353 48.7464 88.3676 49.8603 93.1414 57.4984" stroke="black" stroke-width="1.58564"/>
<path d="M92.7441 35.6183C93.6724 34.5575 96.8019 32.4358 101.894 32.4358C106.986 32.4358 111.176 28.7228 112.635 26.8663" stroke="black" stroke-width="1.58564"/>
<path d="M116.215 78.1848C115.552 79.7761 115.101 83.5951 118.602 86.1412C122.978 89.3237 122.978 95.6888 128.15 96.0866" stroke="black" stroke-width="1.58564"/>
<path d="M129.344 72.2175C129.344 69.8306 129.583 64.4203 130.538 61.8743C131.492 59.3282 129.875 53.9179 128.946 51.531" stroke="black" stroke-width="1.58564"/>
<path d="M51.7686 86.3157C53.3598 86.3157 57.0993 87.0317 59.3271 89.896C61.5549 92.7603 65.5595 93.7416 67.2834 93.8742" stroke="black" stroke-width="1.58564"/>
<path d="M45.4043 74.7789C46.7304 74.1158 50.1781 73.108 53.3606 74.3811" stroke="black" stroke-width="1.58564"/>
</svg>
