<svg width="209" height="169" viewBox="0 0 209 169" fill="none" xmlns="http://www.w3.org/2000/svg">
<path d="M19.1721 99.5923C25.5417 80.1087 81.7756 77.1113 109.096 78.048C135.012 78.048 187.78 82.3569 191.527 99.5923C196.21 121.137 196.21 148.77 109.096 150.643C21.9822 152.517 11.21 123.947 19.1721 99.5923Z" fill="#DDDDDD"/>
<path d="M20.1088 97.7189C28.383 104.744 57.7646 118.514 109.096 117.39C160.428 116.266 184.814 103.495 190.59 97.2506M109.096 78.048C81.7756 77.1113 25.5417 80.1087 19.1721 99.5923C11.21 123.947 21.9822 152.517 109.096 150.643C196.21 148.77 196.21 121.137 191.527 99.5923C187.78 82.3569 135.012 78.048 109.096 78.048Z" stroke="black" stroke-width="1.87342"/>
<path d="M43.5245 90.2253C40.246 90.6937 34.2511 91.7241 34.6258 93.9722C35.0942 96.7823 59.9169 110.365 106.752 108.491C144.221 106.992 166.702 100.373 173.259 97.2507" stroke="black" stroke-width="1.87342"/>
<path d="M34.5337 116.153C35.002 118.963 59.8248 132.545 106.66 130.672C144.129 129.173 166.61 122.553 173.167 119.431" stroke="black" stroke-width="1.87342"/>
<path d="M19.1721 70.5546C25.5417 51.071 81.7756 48.0736 109.096 49.0103C135.012 49.0103 187.78 53.3191 191.527 70.5546C196.21 92.099 196.21 119.732 109.096 121.605C21.9822 123.479 11.21 94.9091 19.1721 70.5546Z" fill="#DDDDDD"/>
<path d="M20.1088 68.6812C28.383 75.7065 57.7646 89.4762 109.096 88.3521C160.428 87.2281 184.814 74.4576 190.59 68.2128M109.096 49.0103C81.7756 48.0736 25.5417 51.071 19.1721 70.5546C11.21 94.9091 21.9822 123.479 109.096 121.605C196.21 119.732 196.21 92.099 191.527 70.5546C187.78 53.3191 135.012 49.0103 109.096 49.0103Z" stroke="black" stroke-width="1.87342"/>
<path d="M34.5337 87.1145C35.002 89.9246 59.8248 103.507 106.66 101.634C144.129 100.135 166.61 93.5154 173.167 90.393" stroke="black" stroke-width="1.87342"/>
<path d="M43.5245 61.1873C40.246 61.6556 34.2511 62.686 34.6258 64.9341C35.0942 67.7442 59.9169 81.3265 106.752 79.4531C144.221 77.9544 166.702 71.335 173.259 68.2126" stroke="black" stroke-width="1.87342"/>
<path d="M18.8913 39.4927C25.2609 20.0091 81.4948 17.0117 108.816 17.9484C134.731 17.9484 187.499 22.2572 191.246 39.4927C195.93 61.0371 195.93 88.6701 108.816 90.5435C21.7014 92.4169 10.9292 63.8472 18.8913 39.4927Z" fill="#DDDDDD"/>
<path d="M19.828 37.6193C28.1023 44.6446 57.4838 58.4143 108.816 57.2902C160.147 56.1662 184.533 43.3957 190.309 37.151M108.816 17.9484C81.4948 17.0117 25.2609 20.0091 18.8913 39.4927C10.9292 63.8472 21.7014 92.4169 108.816 90.5435C195.93 88.6701 195.93 61.0371 191.246 39.4927C187.499 22.2572 134.731 17.9484 108.816 17.9484Z" stroke="black" stroke-width="1.87342"/>
<path d="M43.2438 30.1254C39.9653 30.5937 33.9704 31.6241 34.345 33.8722C34.8134 36.6823 59.6362 50.2647 106.472 48.3912C143.94 46.8925 166.421 40.2731 172.978 37.1507" stroke="black" stroke-width="1.87342"/>
<path d="M34.5337 54.3295C35.002 57.1396 59.8248 70.7219 106.66 68.8485C144.129 67.3498 166.61 60.7303 173.167 57.608" stroke="black" stroke-width="1.87342"/>
</svg>
