<svg width="204" height="100" viewBox="0 0 204 100" fill="none" xmlns="http://www.w3.org/2000/svg">
<path d="M30.887 76.6978C35.6213 72.3953 46.3918 63.145 51.5995 60.5635C56.8073 57.982 68.3668 52.643 73.4956 50.2962M59.8845 76.1111C65.6052 72.2975 78.0524 63.9664 82.0766 61.1502C86.1007 58.334 96.3781 52.9364 101.014 50.5896M84.1478 75.5244C89.7698 71.6131 102.138 63.0863 106.636 60.2702C111.133 57.454 122.91 52.4475 128.236 50.2962M106.044 75.5244C110.482 72.1998 121.194 64.6704 128.532 61.1502C135.87 57.63 149.738 52.4475 155.754 50.2962M128.532 75.5244C132.576 72.5909 141.847 65.9612 146.581 62.9103C151.316 59.8595 165.321 53.6209 171.732 50.8829M151.02 75.5244C154.472 72.5909 162.323 66.1372 166.11 63.7904C169.898 61.4436 178.538 58.1189 182.384 56.75M21.432 48.5361C19.9526 50.4918 17.0528 56.0459 17.2895 62.617C17.5854 70.8308 21.7279 76.6978 32.0841 76.6978H176.184C179.439 76.1111 185.89 73.2363 185.653 66.4305C185.416 59.6248 183.779 51.6652 182.99 48.5361H21.432Z" stroke="black" stroke-width="1.16925"/>
<path d="M33.6873 18.1104C45.4313 11.9059 73.8126 11.7468 86.5353 12.4428C124.997 14.2326 161.697 27.0593 174.909 32.1304C185.479 36.1872 184.598 44.7582 182.836 48.5366H21.3561C13.7225 34.815 19.0073 25.8661 33.6873 18.1104Z" fill="#DDDDDD"/>
<path d="M100.001 13.9212C99.7076 20.0816 91.7871 26.5353 83.5733 33.8691C77.0022 39.7361 61.2786 46.092 54.2382 48.5366C47.5889 51.3723 33.1169 58.1585 28.4233 62.6175C23.7297 67.0764 20.9918 70.7335 20.2095 72.0047M18.156 40.0295C21.3829 39.0516 28.8927 35.5119 33.1169 29.1755C37.3412 22.8391 37.8105 18.1259 37.5172 16.5614M55.9935 12.7478C56.0854 14.6241 54.8903 20.4505 49.3743 28.7456C43.8582 37.0408 26.8505 41.4846 19.0361 42.6696C29.3312 41.4846 51.7383 37.0408 59.0054 28.7456C66.2726 20.4505 67.8534 14.3308 67.7323 12.4545M84.16 12.4545C84.3555 13.8235 82.9279 18.7909 75.6528 27.7087C68.3777 36.6266 45.4377 45.9943 36.6371 48.5366C31.259 50.6879 19.9161 55.7531 17.5693 58.8039M112.615 15.9747C113.006 19.2993 111.676 27.474 103.228 33.5757C94.7793 39.6774 80.3464 46.092 74.186 48.5366M132.269 19.2016C129.825 23.504 122.941 33.0477 114.962 36.8026C106.983 40.5575 95.2095 45.0164 90.3203 46.7765M148.11 24.4819C145.275 27.7087 137.784 34.9252 130.509 37.976C123.234 41.0268 113.984 44.1364 110.268 45.3098M127.576 45.3098C131.781 44.6253 141.715 42.0829 147.817 37.3893C153.919 32.6957 156.618 29.371 157.204 28.2954M148.99 45.6031C152.217 44.6253 159.492 41.9069 162.778 38.8561C166.064 35.8052 168.449 33.0868 169.232 32.109M86.5353 12.4428C73.8126 11.7468 45.4313 11.9059 33.6873 18.1104C19.0073 25.8661 13.7225 34.815 21.3561 48.5366H182.836C184.598 44.7582 185.479 36.1872 174.909 32.1304C161.697 27.0593 124.997 14.2326 86.5353 12.4428Z" stroke="black" stroke-width="1.16925"/>
</svg>
