<svg width="298" height="236" viewBox="0 0 298 236" fill="none" xmlns="http://www.w3.org/2000/svg">
<path d="M36.7242 58.2172C38.0359 48.2485 59.5692 44.226 70.1719 43.4609L166.527 31.9104C171.322 31.3356 176.116 32.9938 179.531 36.4087L256.966 113.844C259.977 116.855 261.639 120.957 261.574 125.215L260.9 169.284C260.78 177.069 254.987 183.598 247.271 184.641L109.232 203.311C103.898 204.032 98.566 201.978 95.0944 197.866L40.275 132.926C37.9761 130.203 36.6674 126.789 36.5786 123.226C36.0606 102.461 35.5264 67.3211 36.7242 58.2172Z" fill="#D9D9D9" stroke="black" stroke-width="2.06"/>
<path d="M38.3643 60.5126L99.0586 131.374C101.574 134.311 102.92 138.07 102.841 141.936L101.652 199.878" stroke="black" stroke-width="2.06"/>
<path d="M39.6758 56.5775L101.735 128.879C105.166 132.876 110.368 134.892 115.596 134.25L254.134 117.242" stroke="black" stroke-width="2.06"/>
<path d="M38.0361 121.177C44.1573 126.861 57.1865 140.656 60.3346 150.362" stroke="black" stroke-width="2.06"/>
<path d="M61.6465 142.82C62.8489 146.755 66.8276 155.74 73.1236 160.2" stroke="black" stroke-width="2.06"/>
<path d="M84.9287 172.989C90.5033 176.924 101.653 187.679 101.653 199.222" stroke="black" stroke-width="2.06"/>
<path d="M48.8574 90.0252C48.8574 80.0565 56.9461 73.8479 60.9904 71.9897C63.2858 70.6781 65.3845 68.7761 82.961 72.9735C104.932 78.2202 92.1426 69.0385 72.4675 64.4476C52.7925 59.8568 43.2828 49.3634 48.8574 45.7563C54.4321 42.1493 61.9742 44.1167 80.0097 52.6426C98.0452 61.1685 96.7335 54.2822 85.2563 51.9868C73.7792 49.6913 70.828 41.1654 76.4026 39.1979C81.9772 37.2304 95.0939 46.74 101.324 49.3634C107.555 51.9867 116.409 56.9055 135.756 62.808C155.103 68.7105 209.865 81.4994 224.949 85.4344C240.034 89.3694 254.79 90.0252 254.134 99.5348C253.478 109.044 237.738 104.126 224.949 100.847C212.161 97.5673 183.96 85.1065 160.022 81.4994C136.084 77.8923 87.8797 57.8893 102.308 67.7268C116.736 77.5643 134.772 82.811 158.71 90.0252C182.648 97.2394 216.424 102.158 235.115 110.028C253.806 117.898 239.706 134.95 237.738 147.083C235.771 159.216 242.985 175.284 233.147 174.3C223.31 173.316 229.868 152.658 227.573 144.788C225.277 136.918 220.359 127.408 214.128 118.554C207.898 109.7 201.995 110.356 193.797 111.996C185.599 113.635 189.206 116.259 197.404 120.85C205.602 125.44 204.291 130.359 204.619 133.966C204.946 137.573 207.898 141.508 208.554 147.083C209.209 152.658 206.914 152.33 205.274 163.151C203.635 173.972 209.865 183.482 201.995 184.138C194.125 184.794 195.437 163.807 195.765 155.281C196.093 146.755 200.684 147.083 193.797 133.966C186.911 120.85 170.515 119.21 143.626 114.619C116.736 110.028 110.178 94.6161 106.899 102.486C103.62 110.356 116.409 110.356 141.658 120.194C166.908 130.031 172.155 148.067 163.957 149.05C155.759 150.034 153.791 134.95 134.772 126.752C115.753 118.554 120.671 128.392 102.308 119.21C83.9447 110.028 96.0776 110.684 80.0097 100.847C63.9417 91.009 77.7142 136.918 62.3021 130.359C46.8899 123.801 66.565 93.6323 63.2858 91.6648C60.0067 89.6973 48.8574 102.486 48.8574 90.0252Z" fill="#E6E6E6" stroke="black" stroke-width="2.06"/>
<path d="M98.3734 34.935C105.194 34.6727 142.97 47.9424 161.006 54.6101C165.269 56.1744 168.22 50.3766 158.382 47.7238C135.034 41.4278 131.602 36.5746 132.805 34.935C135.1 30.3442 141.986 29.3604 179.041 38.87C188.004 41.1655 205.406 47.1336 203.307 52.6426C200.684 59.5289 190.19 56.2497 179.041 53.2984C172.285 51.5101 170.002 55.0302 175.256 58.6116C176.612 59.5364 178.22 59.9799 179.842 60.2338C199.455 63.3038 230.693 69.2157 237.738 79.5318C246.92 92.9765 233.804 83.4669 164.613 64.7755C95.4221 46.0842 89.8475 35.2629 98.3734 34.935Z" fill="#E6E6E6" stroke="black" stroke-width="2.06"/>
</svg>
