<svg width="248" height="162" viewBox="0 0 248 162" fill="none" xmlns="http://www.w3.org/2000/svg">
<path d="M97.5614 49.3643C97.949 45.488 103.214 41.6118 105.798 40.1582L110.644 36.7664L125.664 27.5603C133.094 23.5225 149.019 14.9624 153.283 13.0243C158.613 10.6016 168.303 8.66349 182.839 10.6016C197.375 12.5398 205.612 17.3851 210.942 20.2923C216.272 23.1995 220.633 31.4366 221.602 33.8592C222.377 35.7974 222.571 36.9279 222.571 37.251C222.894 39.0276 223.346 43.0654 222.571 45.0035C221.796 46.9416 219.664 48.3952 218.695 48.8798C219.018 49.2028 219.858 50.1396 220.633 51.3024C221.408 52.4653 220.956 55.3402 220.633 56.6323C219.341 61.6391 216.466 72.525 215.303 76.0136C213.85 80.3744 209.973 88.127 209.004 89.5806C208.229 90.7435 200.929 98.1407 197.375 101.694L183.808 115.261C181.87 117.199 179.448 119.622 176.54 120.106C173.633 120.591 162.489 117.684 161.035 117.199C159.582 116.714 146.499 113.323 144.077 112.838C141.654 112.354 132.448 112.838 130.51 112.838C128.572 112.838 118.396 113.807 113.551 113.807C108.706 113.807 108.221 109.446 107.252 105.57C106.477 102.469 106.606 95.5565 106.768 92.4878C106.768 88.127 106.671 78.4363 106.283 74.56C105.799 69.7147 100.953 60.5086 99.984 59.5395C99.015 58.5704 97.0768 54.2096 97.5614 49.3643Z" fill="#DDDDDD"/>
<path d="M105.139 40.6258C117.09 32.3888 144.773 15.0425 157.953 11.5538C174.427 7.19305 223.365 11.5538 222.88 41.5949C222.88 43.8509 221.819 48.4542 217.579 48.8602M217.579 48.8602C217.57 48.8611 217.56 48.862 217.55 48.8629M217.579 48.8602C219.199 48.7197 221.999 50.2636 220.458 57.5845C218.519 66.7906 213.674 84.2338 207.86 90.5328C203.208 95.5719 187.832 111.045 180.726 118.151M112.407 38.2032C107.723 38.8492 98.2582 42.1764 97.8705 50.3165C97.386 60.4917 106.108 62.9144 106.592 80.3576C107.077 97.8008 105.139 113.306 113.376 113.79C121.613 114.275 133.242 111.852 143.417 112.821C153.592 113.79 179.273 124.935 181.211 117.182C183.149 109.43 187.994 69.6979 191.87 66.3061C195.747 62.9144 203.499 54.6773 186.541 44.5021C169.582 34.3269 156.984 32.8733 147.293 32.8733C137.603 32.8733 115.313 38.2032 112.407 38.2032Z" stroke="black" stroke-width="1.93813"/>
<path d="M117.252 54.1923C116.864 52.2541 114.829 48.8624 113.86 47.4088C114.183 46.4397 115.701 45.083 119.19 47.4088C123.551 50.316 117.736 56.6149 117.252 54.1923Z" stroke="black" stroke-width="1.93813"/>
<path d="M138.813 63.0896C136.1 61.9267 133.483 62.6051 132.514 63.0896C134.065 67.7411 137.359 67.6119 138.813 66.9659C139.944 66.1583 141.526 64.2525 138.813 63.0896Z" stroke="black" stroke-width="1.93813"/>
<path d="M123.307 77.6248C125.632 77.6248 126.214 78.9168 126.214 79.5629C126.052 80.532 125.245 82.4701 123.307 82.4701C120.884 82.4701 120.399 77.6248 123.307 77.6248Z" stroke="black" stroke-width="1.93813"/>
<path d="M140.89 42.4963C144.766 41.3334 146.704 42.9808 147.189 43.9499C147.189 46.8571 144.282 47.8261 140.89 47.8261C137.498 47.8261 136.045 43.9499 140.89 42.4963Z" stroke="black" stroke-width="1.93813"/>
<path d="M163.457 64.5248C160.744 64.1371 157.482 61.456 156.189 60.164C156.189 57.7413 159.581 58.2258 165.88 60.6485C170.919 62.5866 168.626 68.5625 166.849 71.3082C166.849 69.2086 166.171 64.9124 163.457 64.5248Z" stroke="black" stroke-width="1.93813"/>
<path d="M152.321 90.4653C151.837 89.4962 150.48 87.8488 148.929 89.0117C146.991 90.4653 151.352 95.3106 152.321 90.4653Z" stroke="black" stroke-width="1.93813"/>
<path d="M164.453 81.828C163.161 81.828 160.48 82.2156 160.092 83.7661C159.608 85.7043 166.391 87.1579 164.453 81.828Z" stroke="black" stroke-width="1.93813"/>
<path d="M138.445 100.374C139.608 99.9868 141.514 100.536 142.321 100.859C142.806 101.02 143.194 101.731 140.868 103.282C137.961 105.22 136.992 100.859 138.445 100.374Z" stroke="black" stroke-width="1.93813"/>
<path d="M168.788 101.209C169.951 101.209 170.241 102.178 170.241 102.663C170.241 103.147 169.951 104.117 168.788 104.117C167.625 104.117 167.011 103.147 166.85 102.663C167.011 102.178 167.625 101.209 168.788 101.209Z" stroke="black" stroke-width="1.93813"/>
<path d="M33.9117 91.5025C40.1137 86.8509 72.0283 85.6881 87.2103 85.6881C90.6987 85.6653 92.0561 87.671 98.355 91.987C107.077 97.9629 125.973 110.884 131.788 114.76C139.056 119.605 137.118 124.935 136.633 131.719C136.149 138.502 121.613 146.255 95.9324 151.1C70.2521 155.945 31.9735 124.935 26.6437 117.183C21.3138 109.43 26.1591 97.3169 33.9117 91.5025Z" fill="#DDDDDD"/>
<path d="M29.5513 95.8632C38.2729 108.138 62.5965 130.556 80.4273 133.657C102.716 137.533 103.2 133.172 110.468 129.296C116.283 126.195 129.688 120.897 135.664 118.636M87.2103 85.6881C72.0283 85.6881 40.1137 86.8509 33.9117 91.5025C26.1591 97.3169 21.3138 109.43 26.6437 117.183C31.9735 124.935 70.2521 155.945 95.9324 151.1C121.613 146.255 136.149 138.502 136.633 131.719C137.118 124.935 139.056 119.605 131.788 114.76C125.973 110.884 107.077 97.9629 98.355 91.987C92.0561 87.671 90.6987 85.6653 87.2103 85.6881Z" stroke="black" stroke-width="1.93813"/>
<path d="M49.9028 99.2546C50.6781 98.0917 53.1331 97.4779 54.2636 97.3164C54.5867 96.9934 54.942 97.0257 53.7791 99.7391C52.3255 103.131 48.9338 100.708 49.9028 99.2546Z" stroke="black" stroke-width="1.93813"/>
<path d="M77.2094 114.332C76.4342 113.17 72.0411 113.848 69.9414 114.332C70.9105 113.04 73.7208 110.553 77.2094 110.941C81.5702 111.425 78.1785 115.786 77.2094 114.332Z" stroke="black" stroke-width="1.93813"/>
<path d="M86.416 125.921C86.416 125.146 87.7081 123.983 88.3541 123.498C89.0002 123.66 90.3892 124.37 90.7768 125.921C91.2613 127.859 86.416 126.89 86.416 125.921Z" stroke="black" stroke-width="1.93813"/>
<path d="M108.941 112.136C108.618 111.49 106.906 110.392 102.643 111.167C97.3127 112.136 106.034 116.981 108.941 112.136Z" stroke="black" stroke-width="1.93813"/>
<path d="M83.334 96.8314C85.6598 96.8314 86.5642 97.8005 86.7257 98.285C87.2103 98.9311 87.4041 100.32 84.3031 100.708C80.4268 101.192 80.4268 96.8314 83.334 96.8314Z" stroke="black" stroke-width="1.93813"/>
</svg>
