<svg width="212" height="181" viewBox="0 0 212 181" fill="none" xmlns="http://www.w3.org/2000/svg">
<path d="M198.124 51.2786C198.124 71.3056 196.703 84.8356 187.276 99.0782C177.796 113.403 160.166 128.528 127.423 151.474C109.68 163.908 81.0661 170.049 56.8733 168.065C44.7853 167.073 33.913 164.061 26.0942 158.89C18.3142 153.745 13.572 146.484 13.572 136.853C13.572 97.1669 32.8815 64.3902 81.1534 29.975C102.828 16.9845 132.201 12.5255 156.143 16.3006C168.116 18.1884 178.645 22.1223 186.156 27.9945C193.64 33.8458 198.124 41.6097 198.124 51.2786Z" fill="#DDDDDD" stroke="black" stroke-width="2.06204"/>
<path d="M51.7202 110.562C64.2643 106.953 91.002 95.7153 97.6005 79.6314C105.849 59.5266 119.767 43.0303 132.655 40.4528" stroke="black" stroke-width="2.06204"/>
<path d="M30.0684 156.256C52.2352 156.084 104.508 144.399 136.263 99.0341C168.019 53.6693 171.49 30.2995 169.256 24.2853" stroke="black" stroke-width="2.06204"/>
</svg>
