<svg width="231" height="119" viewBox="0 0 231 119" fill="none" xmlns="http://www.w3.org/2000/svg">
<path d="M109.281 15.8728C194.84 16.495 209.618 42.3182 209.618 56.3186V56.3188C209.618 74.9861 209.618 97.1534 127.17 98.3201C44.7229 99.4868 35.7787 80.4306 32.2785 76.1527C28.7784 71.8747 2.33304 15.095 109.281 15.8728Z" fill="#DDDDDD" stroke="black" stroke-width="1.55561"/>
<path d="M101.892 63.7425C95.6695 57.52 68.187 41.4454 55.2236 34.1859C57.6867 32.7599 67.5129 30.9969 87.1136 35.3526C106.714 39.7083 131.837 69.3167 141.949 83.5765C131.189 79.5578 108.114 69.9649 101.892 63.7425Z" fill="white" stroke="black" stroke-width="1.55561"/>
<path d="M138.839 52.0408C127.327 38.3514 91.7817 26.114 75.4478 21.7064C89.1371 21.7064 106.56 24.5584 113.56 25.9843C144.05 33.7624 173.71 67.8562 184.729 83.9308C174.229 79.0047 150.35 65.7302 138.839 52.0408Z" fill="white" stroke="black" stroke-width="1.55561"/>
<path d="M157.897 38.4292C152.608 33.4513 131.84 25.2065 122.118 21.7064C138.918 21.7064 154.008 26.6325 159.452 29.0956C184.653 38.1181 194.065 53.0779 195.62 59.43C194.065 56.9669 189.864 51.6519 185.509 50.0963C180.064 48.1518 164.508 44.6517 157.897 38.4292Z" fill="white" stroke="black" stroke-width="1.55561"/>
</svg>
