<svg width="204" height="145" viewBox="0 0 204 145" fill="none" xmlns="http://www.w3.org/2000/svg">
<path d="M19.9758 64.195C26.1619 33.2644 72.0422 22.0951 94.209 20.3767C150.4 20.3767 183.907 60.0709 184.938 78.1137C185.969 96.1565 169.473 102.343 161.74 102.858C154.008 103.374 135.45 122.447 108.128 124.509C80.8056 126.572 52.4528 108.013 41.6271 106.467C30.8015 104.92 12.2431 102.858 19.9758 64.195Z" fill="#DDDDDD" stroke="black" stroke-width="2.05474"/>
<circle cx="59.669" cy="50.2761" r="2.06204" fill="black"/>
<circle cx="79.2588" cy="71.9276" r="2.06204" fill="black"/>
<circle cx="34.9251" cy="66.7726" r="1.03102" fill="black"/>
<circle cx="85.4451" cy="35.842" r="3.09305" fill="black"/>
<circle cx="1.03102" cy="1.03102" r="1.03102" transform="matrix(1 0 0 -1 99.8794 73.9896)" fill="black"/>
<circle cx="2.06204" cy="2.06204" r="2.06204" transform="matrix(1 0 0 -1 110.189 72.9586)" fill="black"/>
<circle cx="1.03102" cy="1.03102" r="1.03102" transform="matrix(1 0 0 -1 118.438 43.059)" fill="black"/>
<circle cx="1.03102" cy="1.03102" r="1.03102" transform="matrix(1 0 0 -1 132.872 81.2068)" fill="black"/>
<circle cx="2.06204" cy="2.06204" r="2.06204" transform="matrix(1 0 0 -1 150.399 62.6482)" fill="black"/>
<circle cx="1.03102" cy="1.03102" r="1.03102" transform="matrix(1 0 0 -1 158.647 67.8035)" fill="black"/>
<circle cx="1.03102" cy="1.03102" r="1.03102" transform="matrix(1 0 0 -1 163.803 63.6793)" fill="black"/>
<path d="M18.4292 82.7532C24.959 85.3308 39.5651 90.7952 45.7512 92.0324C53.4838 93.5789 89.5694 111.106 109.159 109.044C128.748 106.982 154.008 92.0324 159.679 89.9704C165.349 87.9083 183.908 78.6292 184.939 77.0826" stroke="black" stroke-width="2.05474"/>
</svg>
